<?xml version="1.0" encoding="utf-8"?>
<!-- Generator: Adobe Illustrator 18.1.1, SVG Export Plug-In . SVG Version: 6.00 Build 0)  -->
<svg version="1.1" xmlns="http://www.w3.org/2000/svg" xmlns:xlink="http://www.w3.org/1999/xlink" x="0px" y="0px"
	 viewBox="0 0 260.8 190.5" enable-background="new 0 0 260.8 190.5" xml:space="preserve">
<g id="Layer_2">
</g>
<g id="Layer_1">
	<g>
		<path fill="#FFFFFF" d="M117.5,111.9c-0.3,0-0.5,0-0.8,0c-10.3,12.8-26.2,21-43.9,21c-14.9,0-28.4-5.8-38.5-15.3
			C13.1,121.1,0,126,0,131.4c0,10.8,52.6,19.5,117.5,19.5S235,142.1,235,131.4C235,120.6,182.4,111.9,117.5,111.9z"/>
		<path fill="none" d="M72.8,129.9c29.4,0,53.4-24,53.4-53.4s-24-53.4-53.4-53.4S19.4,47,19.4,76.5S43.4,129.9,72.8,129.9z"/>
		<path fill="none" stroke="#FFFFFF" stroke-width="3" stroke-miterlimit="10" d="M116.7,111.9c7.8-9.7,12.5-22,12.5-35.4
			c0-31.1-25.3-56.4-56.4-56.4S16.4,45.4,16.4,76.5c0,16.2,6.9,30.8,17.9,41.1c10.1,9.5,23.6,15.3,38.5,15.3
			C90.5,132.9,106.4,124.7,116.7,111.9z M72.8,23.1c29.4,0,53.4,24,53.4,53.4s-24,53.4-53.4,53.4s-53.4-24-53.4-53.4
			S43.4,23.1,72.8,23.1z"/>
	</g>
	<path fill="none" stroke="#FFFFFF" stroke-miterlimit="10" d="M75.3,89.7c4.5-3.4,9-6.9,12.7-2.3"/>
	<path fill="none" stroke="#FFFFFF" stroke-miterlimit="10" d="M112.5,89.9c-1.7-3.5-3.3-7.2-9.3-2.3"/>
	<g>
		<path fill="#FEF3F6" d="M136.3,47.6c0.1-0.4,0.3-0.8,0.6-1.1c0.3-0.3,0.6-0.6,0.9-0.8c0.1-0.1,0.3-0.2,0.5-0.4
			c0.2-0.2,0.4-0.4,0.7-0.6c0.3-0.2,0.5-0.5,0.8-0.7c0.3-0.3,0.6-0.5,0.9-0.8c0.3-0.3,0.6-0.5,0.9-0.8c0.3-0.2,0.5-0.5,0.7-0.6
			c1.5-1.3,2.8-2.5,4-3.5c1.2-1,2.3-2,3.2-2.8s1.7-1.5,2.4-2.1c0.7-0.6,1.2-1.1,1.7-1.5c0.5-0.4,0.8-0.7,1-0.9
			c0.2-0.2,0.4-0.3,0.5-0.4c-0.2,0-0.4,0-0.7-0.1s-0.5,0-0.7,0c-0.4,0-0.8,0-1.2,0c-0.4,0-0.7,0.1-1.1,0.1c-0.3,0.1-0.7,0.1-1,0.2
			c-0.3,0.1-0.7,0.2-1,0.2c-0.5,0.1-0.9,0.2-1.3,0.4c-0.4,0.1-0.8,0.2-1.2,0.3c-0.4,0.1-0.7,0.2-1,0.3s-0.5,0.2-0.7,0.2
			c-0.2,0.1-0.5,0.2-0.7,0.2s-0.6,0.1-1,0.1c-0.2,0-0.4-0.1-0.6-0.2c-0.2-0.1-0.3-0.2-0.4-0.4s-0.2-0.3-0.2-0.5
			c-0.1-0.2-0.1-0.4-0.1-0.5s0-0.3,0.1-0.5c0.1-0.2,0.1-0.3,0.2-0.5s0.2-0.3,0.4-0.4c0.1-0.1,0.3-0.1,0.5-0.1c0.1,0,0.4,0,0.7,0
			c0.3,0,0.6-0.1,1-0.1c0.1,0,0.2,0,0.5-0.1c0.2-0.1,0.5-0.1,0.9-0.2c0.3-0.1,0.7-0.2,1.1-0.2s0.7-0.2,1.1-0.3
			c0.5-0.1,0.9-0.2,1.3-0.3c0.4-0.1,0.8-0.1,1.3-0.2s1-0.1,1.6-0.1c0.6,0,1.4,0,2.3,0c0.5,0,1,0,1.3,0c0.4,0,0.7,0.1,0.9,0.2
			c0.3,0.1,0.5,0.2,0.7,0.4s0.3,0.4,0.5,0.7c0.1,0.1,0.1,0.2,0.1,0.3s0,0.2,0,0.2c0,0.3,0,0.5-0.1,0.7c-0.1,0.2-0.2,0.4-0.4,0.6
			c-0.1,0.2-0.3,0.3-0.5,0.5s-0.3,0.3-0.5,0.4c-2.8,2.4-5.5,4.8-8.2,7.1c-2.7,2.4-5.4,4.7-8.1,7.1c0.6-0.1,1.3-0.1,2.1-0.2
			c0.8-0.1,1.6-0.2,2.4-0.3c0.9-0.1,1.7-0.2,2.6-0.3c0.9-0.1,1.7-0.3,2.5-0.4c0.4-0.1,0.7-0.2,1-0.3c0.3-0.1,0.6-0.2,0.8-0.3
			c0.2-0.1,0.4-0.2,0.6-0.3c0.2-0.1,0.3-0.2,0.3-0.2c0.1,0,0.3-0.2,0.5-0.3c0.2-0.2,0.5-0.4,0.7-0.6c0.3-0.2,0.5-0.4,0.8-0.5
			c0.3-0.2,0.6-0.2,0.8-0.2c0.2,0,0.4,0.1,0.6,0.2c0.2,0.1,0.3,0.4,0.3,0.6c0,0.2-0.1,0.4-0.2,0.6s-0.4,0.5-0.6,0.7
			c-0.3,0.3-0.6,0.5-0.9,0.8c-0.4,0.3-0.7,0.5-1.1,0.8c-0.1,0-0.2,0.1-0.3,0.2s-0.2,0.1-0.4,0.2c-0.1,0.1-0.3,0.2-0.4,0.2
			c-0.2,0.1-0.3,0.1-0.4,0.2c-1,0.4-1.9,0.7-2.7,0.9c-0.8,0.2-1.6,0.3-2.3,0.4c-0.7,0.1-1.4,0.1-2.1,0.2c-0.7,0-1.4,0.1-2.1,0.3
			c-0.4,0.1-0.9,0.2-1.5,0.3s-1,0.2-1.5,0.3c-0.5,0.1-0.9,0.2-1.3,0.2c-0.4,0.1-0.7,0.1-0.8,0.1c-0.6,0-1.1-0.1-1.4-0.4
			c-0.3-0.2-0.4-0.6-0.4-1c0-0.1,0-0.2,0-0.3C136.3,47.7,136.3,47.6,136.3,47.6z"/>
	</g>
	<g>
		<path fill="#FEF3F6" d="M163.7,33.6c0-0.4,0-0.8,0.1-1.2c0.1-0.4,0.3-0.7,0.5-1c0.1-0.1,0.2-0.2,0.3-0.4c0.1-0.2,0.3-0.5,0.4-0.7
			c0.2-0.3,0.3-0.6,0.5-0.9s0.3-0.6,0.5-1c0.2-0.3,0.3-0.6,0.5-0.9c0.2-0.3,0.3-0.5,0.4-0.8c0.9-1.6,1.7-3,2.4-4.3
			c0.7-1.3,1.3-2.4,1.9-3.4s1-1.8,1.4-2.5c0.4-0.7,0.7-1.3,1-1.8s0.5-0.8,0.6-1.1c0.1-0.3,0.2-0.4,0.3-0.5c-0.2,0-0.4,0.1-0.6,0.2
			s-0.4,0.1-0.6,0.2c-0.4,0.1-0.7,0.3-1,0.4c-0.3,0.1-0.6,0.3-0.9,0.5c-0.3,0.2-0.5,0.3-0.8,0.5c-0.3,0.2-0.5,0.3-0.8,0.5
			c-0.4,0.2-0.7,0.5-1,0.7c-0.3,0.2-0.6,0.5-0.9,0.7c-0.3,0.2-0.5,0.4-0.8,0.6c-0.2,0.2-0.4,0.3-0.6,0.4c-0.2,0.1-0.3,0.3-0.6,0.4
			s-0.5,0.3-0.8,0.4c-0.2,0.1-0.4,0.1-0.6,0.1c-0.2,0-0.3-0.1-0.5-0.2c-0.1-0.1-0.3-0.2-0.4-0.4s-0.2-0.3-0.2-0.4s-0.1-0.3-0.1-0.5
			s0-0.3,0-0.5c0-0.2,0.1-0.3,0.2-0.4c0.1-0.1,0.2-0.2,0.4-0.3c0.1,0,0.3-0.1,0.6-0.2c0.3-0.1,0.5-0.2,0.8-0.4
			c0.1,0,0.2-0.1,0.4-0.2c0.2-0.1,0.4-0.3,0.7-0.4c0.3-0.2,0.5-0.3,0.8-0.5c0.3-0.2,0.6-0.4,0.8-0.5c0.4-0.2,0.7-0.5,1-0.7
			c0.3-0.2,0.7-0.4,1.1-0.6s0.8-0.4,1.4-0.6c0.5-0.2,1.2-0.5,1.9-0.7c0.4-0.2,0.8-0.3,1.1-0.4c0.3-0.1,0.6-0.1,0.9-0.1
			c0.3,0,0.5,0,0.7,0.1c0.2,0.1,0.4,0.2,0.6,0.4c0.1,0.1,0.1,0.2,0.2,0.2c0,0.1,0.1,0.1,0.1,0.2c0.1,0.2,0.1,0.5,0.1,0.7
			s-0.1,0.4-0.1,0.6s-0.2,0.4-0.3,0.6s-0.2,0.4-0.3,0.5c-1.6,2.9-3.2,5.8-4.8,8.6c-1.6,2.9-3.2,5.7-4.8,8.6c0.5-0.2,1.1-0.5,1.7-0.8
			c0.6-0.3,1.3-0.6,2-1s1.4-0.7,2.1-1.1c0.7-0.4,1.4-0.8,2-1.2c0.3-0.2,0.5-0.4,0.8-0.6s0.4-0.4,0.6-0.5c0.2-0.2,0.3-0.3,0.4-0.4
			c0.1-0.1,0.2-0.2,0.2-0.3c0.1-0.1,0.2-0.2,0.3-0.4c0.1-0.2,0.3-0.4,0.4-0.7c0.2-0.2,0.3-0.5,0.5-0.7c0.2-0.2,0.4-0.4,0.6-0.5
			c0.2-0.1,0.4-0.1,0.6,0c0.2,0.1,0.4,0.2,0.4,0.4c0.1,0.2,0.1,0.4,0,0.6c-0.1,0.2-0.2,0.5-0.3,0.8s-0.3,0.6-0.5,1
			c-0.2,0.3-0.5,0.7-0.7,1c0,0.1-0.1,0.1-0.2,0.2c-0.1,0.1-0.2,0.2-0.3,0.3c-0.1,0.1-0.2,0.2-0.3,0.3c-0.1,0.1-0.2,0.2-0.3,0.3
			c-0.7,0.6-1.4,1.2-2,1.6c-0.6,0.4-1.3,0.8-1.8,1c-0.6,0.3-1.2,0.6-1.7,0.8c-0.6,0.2-1.1,0.5-1.7,0.9c-0.4,0.2-0.7,0.4-1.2,0.7
			c-0.4,0.2-0.8,0.5-1.2,0.7c-0.4,0.2-0.8,0.4-1.1,0.6c-0.3,0.2-0.5,0.3-0.7,0.3c-0.5,0.2-1,0.2-1.3,0.1c-0.3-0.1-0.5-0.3-0.7-0.7
			c0-0.1-0.1-0.2-0.1-0.3C163.7,33.8,163.7,33.7,163.7,33.6z"/>
	</g>
	<g>
		<path fill="#FEF3F6" d="M186,14.9c0.1-0.3,0.2-0.6,0.4-0.9s0.4-0.5,0.6-0.6c0.1,0,0.2-0.1,0.3-0.3c0.2-0.1,0.3-0.3,0.5-0.5
			c0.2-0.2,0.4-0.4,0.6-0.6c0.2-0.2,0.4-0.4,0.7-0.6s0.4-0.4,0.6-0.6s0.4-0.3,0.6-0.5c1.1-1,2.1-1.9,3-2.7c0.9-0.8,1.7-1.5,2.4-2.1
			c0.7-0.6,1.3-1.2,1.8-1.6s0.9-0.8,1.3-1.1s0.6-0.5,0.8-0.7c0.2-0.2,0.3-0.3,0.3-0.3c-0.2,0-0.3,0-0.5,0s-0.3,0-0.5,0
			c-0.3,0-0.6,0-0.9,0c-0.3,0-0.6,0.1-0.8,0.1c-0.3,0-0.5,0.1-0.8,0.2c-0.2,0.1-0.5,0.1-0.7,0.2c-0.4,0.1-0.7,0.2-1,0.3
			c-0.3,0.1-0.6,0.2-0.9,0.3c-0.3,0.1-0.5,0.2-0.7,0.2c-0.2,0.1-0.4,0.1-0.6,0.2c-0.2,0.1-0.3,0.1-0.6,0.2c-0.2,0.1-0.4,0.1-0.7,0.1
			c-0.2,0-0.3,0-0.5-0.1c-0.1-0.1-0.2-0.2-0.3-0.3c-0.1-0.1-0.1-0.2-0.2-0.4c0-0.1-0.1-0.3-0.1-0.4c0-0.1,0-0.3,0.1-0.4
			c0-0.1,0.1-0.3,0.2-0.4c0.1-0.1,0.2-0.2,0.3-0.3c0.1-0.1,0.2-0.1,0.4-0.1c0.1,0,0.3,0,0.5,0c0.2,0,0.5-0.1,0.7-0.1
			c0.1,0,0.2,0,0.4-0.1c0.2,0,0.4-0.1,0.7-0.2c0.3-0.1,0.5-0.1,0.8-0.2c0.3-0.1,0.5-0.1,0.8-0.2c0.4-0.1,0.7-0.2,1-0.2
			s0.6-0.1,1-0.2s0.8-0.1,1.2-0.1c0.5,0,1,0,1.7,0c0.4,0,0.7,0,1,0c0.3,0,0.5,0.1,0.7,0.1c0.2,0.1,0.4,0.2,0.5,0.3s0.3,0.3,0.4,0.5
			c0,0.1,0.1,0.2,0.1,0.2c0,0.1,0,0.1,0,0.2c0,0.2,0,0.4-0.1,0.5c-0.1,0.2-0.2,0.3-0.3,0.4c-0.1,0.1-0.2,0.3-0.4,0.4
			c-0.1,0.1-0.3,0.2-0.4,0.3c-2.1,1.8-4.1,3.7-6.2,5.5c-2,1.8-4.1,3.6-6.1,5.4c0.5-0.1,1-0.1,1.6-0.2c0.6-0.1,1.2-0.1,1.9-0.2
			c0.6-0.1,1.3-0.2,2-0.3c0.7-0.1,1.3-0.2,1.9-0.3c0.3-0.1,0.5-0.2,0.8-0.2c0.2-0.1,0.4-0.2,0.6-0.3c0.2-0.1,0.3-0.2,0.5-0.2
			c0.1-0.1,0.2-0.1,0.2-0.1c0.1,0,0.2-0.1,0.4-0.3c0.2-0.1,0.3-0.3,0.5-0.4c0.2-0.1,0.4-0.3,0.6-0.4c0.2-0.1,0.4-0.2,0.6-0.2
			c0.2,0,0.3,0.1,0.5,0.2c0.1,0.1,0.2,0.3,0.2,0.5c0,0.1-0.1,0.3-0.2,0.5c-0.1,0.2-0.3,0.4-0.5,0.6c-0.2,0.2-0.4,0.4-0.7,0.6
			s-0.6,0.4-0.9,0.6c0,0-0.1,0.1-0.2,0.1c-0.1,0-0.2,0.1-0.3,0.2c-0.1,0.1-0.2,0.1-0.3,0.2c-0.1,0.1-0.2,0.1-0.3,0.2
			c-0.7,0.3-1.4,0.5-2,0.7c-0.6,0.1-1.2,0.2-1.7,0.3c-0.5,0.1-1.1,0.1-1.6,0.2c-0.5,0-1,0.1-1.6,0.2c-0.3,0.1-0.7,0.1-1.1,0.2
			c-0.4,0.1-0.8,0.1-1.2,0.2s-0.7,0.1-1,0.2c-0.3,0-0.5,0.1-0.6,0.1c-0.5,0-0.8-0.1-1.1-0.3s-0.3-0.4-0.3-0.7c0-0.1,0-0.2,0-0.2
			C185.9,15.1,186,15,186,14.9z"/>
	</g>
	<g>
		<path fill="#FFFFFF" d="M64.1,170.2l-6.2-9.4v9.4H57v-10.8h0.8l6.2,9.4v-9.4h0.8v10.8H64.1z"/>
		<path fill="#FFFFFF" d="M74.1,169.3c-0.6,0.6-1.5,1-2.6,1c-1.1,0-2-0.4-2.6-1c-1-1-1.1-1.8-1.1-4.5c0-2.6,0.1-3.5,1.1-4.5
			c0.6-0.6,1.5-1,2.6-1c1.1,0,2,0.4,2.6,1c1,1,1.1,1.8,1.1,4.5C75.2,167.5,75.1,168.3,74.1,169.3z M73.5,160.9
			c-0.6-0.6-1.3-0.8-2-0.8c-0.8,0-1.5,0.3-2,0.8c-0.8,0.8-0.8,1.7-0.8,3.9s0.1,3.2,0.8,3.9c0.6,0.6,1.3,0.8,2,0.8
			c0.8,0,1.5-0.3,2-0.8c0.8-0.8,0.8-1.7,0.8-3.9S74.3,161.7,73.5,160.9z"/>
		<path fill="#FFFFFF" d="M90.2,170.2v-8.9l-3.3,7.4h-0.8l-3.3-7.4v8.9H82v-10.8h0.8l3.8,8.3l3.7-8.3h0.8v10.8H90.2z"/>
		<path fill="#FFFFFF" d="M100.3,169.3c-0.6,0.6-1.5,1-2.6,1c-1.1,0-2-0.4-2.6-1c-1-1-1.1-1.8-1.1-4.5c0-2.6,0.1-3.5,1.1-4.5
			c0.6-0.6,1.5-1,2.6-1c1.1,0,2,0.4,2.6,1c1,1,1.1,1.8,1.1,4.5C101.4,167.5,101.3,168.3,100.3,169.3z M99.7,160.9
			c-0.6-0.6-1.3-0.8-2-0.8c-0.8,0-1.5,0.3-2,0.8c-0.8,0.8-0.8,1.7-0.8,3.9s0.1,3.2,0.8,3.9c0.6,0.6,1.3,0.8,2,0.8
			c0.8,0,1.5-0.3,2-0.8c0.8-0.8,0.8-1.7,0.8-3.9S100.5,161.7,99.7,160.9z"/>
		<path fill="#FFFFFF" d="M106.9,170.2h-0.7l-3.6-10.8h0.9l3,9.4l3-9.4h0.9L106.9,170.2z"/>
		<path fill="#FFFFFF" d="M112.3,170.2v-10.8h6.6v0.7h-5.7v4.3h4.9v0.7h-4.9v4.4h5.7v0.7H112.3z"/>
		<path fill="#FFFFFF" d="M124,170.3c-1.6,0-2.6-0.4-3.6-1.4l0.6-0.6c1,1,1.8,1.3,3.1,1.3c1.7,0,2.8-0.8,2.8-2.2
			c0-0.7-0.2-1.2-0.6-1.5c-0.4-0.3-0.7-0.4-1.6-0.6l-1.3-0.2c-0.8-0.1-1.5-0.4-1.9-0.8c-0.6-0.5-0.8-1.1-0.8-2c0-1.8,1.3-3,3.4-3
			c1.3,0,2.2,0.4,3.1,1.2l-0.5,0.5c-0.6-0.6-1.4-1-2.6-1c-1.6,0-2.5,0.9-2.5,2.2c0,0.6,0.2,1.1,0.5,1.4c0.4,0.3,0.9,0.5,1.5,0.6
			l1.3,0.2c1,0.2,1.4,0.3,1.9,0.7c0.6,0.5,0.9,1.2,0.9,2.1C127.7,169.2,126.3,170.3,124,170.3z"/>
		<path fill="#FFFFFF" d="M136.9,160.2v10.1h-0.8v-10.1h-3.2v-0.7h7.3v0.7H136.9z"/>
		<path fill="#FFFFFF" d="M147.9,169.3c-0.6,0.6-1.5,1-2.6,1c-1.1,0-2-0.4-2.6-1c-1-1-1.1-1.8-1.1-4.5c0-2.6,0.1-3.5,1.1-4.5
			c0.6-0.6,1.5-1,2.6-1c1.1,0,2,0.4,2.6,1c1,1,1.1,1.8,1.1,4.5C149,167.5,148.9,168.3,147.9,169.3z M147.3,160.9
			c-0.6-0.6-1.3-0.8-2-0.8c-0.8,0-1.5,0.3-2,0.8c-0.8,0.8-0.8,1.7-0.8,3.9s0.1,3.2,0.8,3.9c0.6,0.6,1.3,0.8,2,0.8
			c0.8,0,1.5-0.3,2-0.8c0.8-0.8,0.8-1.7,0.8-3.9S148.1,161.7,147.3,160.9z"/>
		<path fill="#FFFFFF" d="M162.1,170.2l-2.6-5h-3v5h-0.8v-10.8h4.1c1.8,0,3.1,1,3.1,2.9c0,1.6-1,2.7-2.5,2.9l2.6,5H162.1z
			 M159.8,160.2h-3.2v4.4h3.2c1.4,0,2.4-0.7,2.4-2.2C162.2,160.8,161.2,160.2,159.8,160.2z"/>
		<path fill="#FFFFFF" d="M165.7,170.2v-10.8h6.6v0.7h-5.7v4.3h4.9v0.7h-4.9v4.4h5.7v0.7H165.7z"/>
		<path fill="#FFFFFF" d="M178.8,165.7h-3.1v4.6h-0.8v-10.8h4c1.9,0,3.3,1.1,3.3,3.1S180.7,165.7,178.8,165.7z M178.7,160.2h-3.1
			v4.8h3.1c1.5,0,2.5-0.8,2.5-2.4C181.2,160.9,180.2,160.2,178.7,160.2z"/>
		<path fill="#FFFFFF" d="M190.3,169.3c-0.6,0.6-1.5,1-2.6,1s-2-0.4-2.6-1c-1-1-1.1-1.8-1.1-4.5c0-2.6,0.1-3.5,1.1-4.5
			c0.6-0.6,1.5-1,2.6-1s2,0.4,2.6,1c1,1,1.1,1.8,1.1,4.5C191.4,167.5,191.3,168.3,190.3,169.3z M189.7,160.9c-0.6-0.6-1.3-0.8-2-0.8
			c-0.8,0-1.5,0.3-2,0.8c-0.8,0.8-0.8,1.7-0.8,3.9s0.1,3.2,0.8,3.9c0.6,0.6,1.3,0.8,2,0.8c0.8,0,1.5-0.3,2-0.8
			c0.8-0.8,0.8-1.7,0.8-3.9S190.5,161.7,189.7,160.9z"/>
		<path fill="#FFFFFF" d="M200.7,170.2l-2.6-5h-3v5h-0.8v-10.8h4.1c1.8,0,3.1,1,3.1,2.9c0,1.6-1,2.7-2.5,2.9l2.6,5H200.7z
			 M198.3,160.2h-3.2v4.4h3.2c1.4,0,2.4-0.7,2.4-2.2C200.7,160.8,199.7,160.2,198.3,160.2z"/>
		<path fill="#FFFFFF" d="M206.9,160.2v10.1h-0.8v-10.1h-3.2v-0.7h7.3v0.7H206.9z"/>
		<path fill="#FFFFFF" d="M11.8,188.5l-0.9-2.6h-5l-0.9,2.6H4l4-10.8h0.7l4,10.8H11.8z M6,185.1h4.5l-2.3-6.4L6,185.1z"/>
		<path fill="#FFFFFF" d="M16.4,178.4v10.1h-0.8v-10.1h-3.2v-0.7h7.3v0.7H16.4z"/>
		<path fill="#FFFFFF" d="M28.5,178.4v10.1h-0.8v-10.1h-3.2v-0.7h7.3v0.7H28.5z"/>
		<path fill="#FFFFFF" d="M40.3,188.5v-5.1h-5.6v5.1h-0.8v-10.8h0.8v5h5.6v-5h0.8v10.8H40.3z"/>
		<path fill="#FFFFFF" d="M44.5,188.5v-10.8H51v0.7h-5.7v4.3h4.9v0.7h-4.9v4.4H51v0.7H44.5z"/>
		<path fill="#FFFFFF" d="M65.7,188.5v-8.9l-3.3,7.4h-0.8l-3.3-7.4v8.9h-0.8v-10.8h0.8L62,186l3.7-8.3h0.8v10.8H65.7z"/>
		<path fill="#FFFFFF" d="M75.8,187.5c-0.6,0.6-1.5,1-2.6,1c-1.1,0-2-0.4-2.6-1c-1-1-1.1-1.8-1.1-4.5c0-2.6,0.1-3.5,1.1-4.5
			c0.6-0.6,1.5-1,2.6-1c1.1,0,2,0.4,2.6,1c1,1,1.1,1.8,1.1,4.5C76.8,185.7,76.8,186.5,75.8,187.5z M75.2,179.1
			c-0.6-0.6-1.3-0.8-2-0.8c-0.8,0-1.5,0.3-2,0.8c-0.8,0.8-0.8,1.7-0.8,3.9s0.1,3.2,0.8,3.9c0.6,0.6,1.3,0.8,2,0.8
			c0.8,0,1.5-0.3,2-0.8c0.8-0.8,0.8-1.7,0.8-3.9S75.9,179.9,75.2,179.1z"/>
		<path fill="#FFFFFF" d="M88,188.5v-8.9l-3.3,7.4h-0.8l-3.3-7.4v8.9h-0.8v-10.8h0.8l3.8,8.3l3.7-8.3h0.8v10.8H88z"/>
		<path fill="#FFFFFF" d="M92.2,188.5v-10.8h6.6v0.7H93v4.3h4.9v0.7H93v4.4h5.7v0.7H92.2z"/>
		<path fill="#FFFFFF" d="M108.3,188.5l-6.2-9.4v9.4h-0.8v-10.8h0.8l6.2,9.4v-9.4h0.8v10.8H108.3z"/>
		<path fill="#FFFFFF" d="M115.3,178.4v10.1h-0.8v-10.1h-3.2v-0.7h7.3v0.7H115.3z"/>
		<path fill="#FFFFFF" d="M119.1,190.5v-3.1h1v2.1L119.1,190.5z"/>
		<path fill="#FFFFFF" d="M130.3,188.6c-1.2,0-2.1-0.4-2.8-1.1c-1-1.1-1.1-2.1-1.1-4.4c0-2.3,0-3.3,1.1-4.4c0.7-0.7,1.6-1.1,2.8-1.1
			c2,0,3.5,1.2,3.9,3.3h-1.7c-0.2-1.1-1-1.9-2.2-1.9c-0.7,0-1.2,0.2-1.6,0.7c-0.5,0.6-0.7,1.2-0.7,3.4s0.1,2.8,0.7,3.4
			c0.4,0.4,0.9,0.7,1.6,0.7c1.2,0,2-0.8,2.2-1.9h1.6C133.8,187.4,132.3,188.6,130.3,188.6z"/>
		<path fill="#FFFFFF" d="M142.5,187.5c-0.7,0.7-1.6,1.1-2.8,1.1s-2.1-0.4-2.8-1.1c-1.1-1.1-1.1-2.1-1.1-4.4c0-2.3,0-3.3,1.1-4.4
			c0.7-0.7,1.6-1.1,2.8-1.1s2.1,0.4,2.8,1.1c1.1,1.1,1.1,2.1,1.1,4.4C143.6,185.3,143.5,186.4,142.5,187.5z M141.3,179.7
			c-0.4-0.4-1-0.7-1.6-0.7c-0.7,0-1.2,0.2-1.6,0.7c-0.5,0.6-0.6,1.2-0.6,3.4s0.1,2.8,0.6,3.4c0.4,0.4,1,0.7,1.6,0.7
			c0.7,0,1.2-0.3,1.6-0.7c0.5-0.6,0.6-1.2,0.6-3.4S141.8,180.3,141.3,179.7z"/>
		<path fill="#FFFFFF" d="M153.9,188.5v-7.2l-2.5,5.3h-1.2l-2.6-5.3v7.2H146v-10.8h1.6l3.2,6.7l3.1-6.7h1.6v10.8H153.9z"/>
		<path fill="#FFFFFF" d="M158.3,188.5v-10.8h6.9v1.5H160v3.2h4.5v1.5H160v3.2h5.3v1.5H158.3z"/>
		<path fill="#FFFFFF" d="M175.5,188.5h-4.4v-10.8h4.2c2,0,3.3,1.1,3.3,3c0,1.2-0.7,2-1.5,2.3c0.8,0.3,1.6,1.1,1.6,2.5
			C178.8,187.4,177.4,188.5,175.5,188.5z M175.2,179.1h-2.4v3.1h2.4c1,0,1.8-0.5,1.8-1.5C177,179.7,176.3,179.1,175.2,179.1z
			 M175.4,183.7h-2.6v3.3h2.6c1.1,0,1.8-0.7,1.8-1.7C177.1,184.4,176.5,183.7,175.4,183.7z"/>
		<path fill="#FFFFFF" d="M187.3,188.5l-0.7-2.2h-4.3l-0.7,2.2h-1.7l4-10.8h1.3l4,10.8H187.3z M184.5,180.1l-1.7,4.8h3.3
			L184.5,180.1z"/>
		<path fill="#FFFFFF" d="M194,188.6c-1.2,0-2.1-0.4-2.8-1.1c-1-1.1-1.1-2.1-1.1-4.4c0-2.3,0-3.3,1.1-4.4c0.7-0.7,1.6-1.1,2.8-1.1
			c2,0,3.5,1.2,3.9,3.3h-1.7c-0.2-1.1-1-1.9-2.2-1.9c-0.7,0-1.2,0.2-1.6,0.7c-0.5,0.6-0.7,1.2-0.7,3.4s0.1,2.8,0.7,3.4
			c0.4,0.4,0.9,0.7,1.6,0.7c1.2,0,2-0.8,2.2-1.9h1.6C197.4,187.4,195.9,188.6,194,188.6z"/>
		<path fill="#FFFFFF" d="M206.5,188.5l-3-5.3l-1.8,2.2v3.1H200v-10.8h1.6v5.4l4.4-5.4h2l-3.5,4.2l3.9,6.6H206.5z"/>
		<path fill="#FFFFFF" d="M213.6,188.5v-10.8h1.6v9.3h5.2v1.5H213.6z"/>
		<path fill="#FFFFFF" d="M228.6,188.5l-0.7-2.2h-4.3l-0.7,2.2h-1.7l4-10.8h1.3l4,10.8H228.6z M225.7,180.1l-1.7,4.8h3.3
			L225.7,180.1z"/>
		<path fill="#FFFFFF" d="M234.6,179.1v9.3H233v-9.3h-3v-1.5h7.6v1.5H234.6z"/>
		<path fill="#FFFFFF" d="M239.4,188.5v-10.8h6.9v1.5h-5.3v3.2h4.5v1.5h-4.5v3.2h5.3v1.5H239.4z"/>
		<path fill="#FFFFFF" d="M254.6,188.5l-2.3-4.6h-2v4.6h-1.6v-10.8h4.2c2,0,3.4,1.3,3.4,3.2c0,1.5-0.9,2.5-2.2,2.9l2.5,4.8H254.6z
			 M252.7,179.1h-2.4v3.4h2.4c1.1,0,1.8-0.6,1.8-1.7S253.8,179.1,252.7,179.1z"/>
		<path fill="#FFFFFF" d="M260.5,185.2h-1.2l-0.3-7.6h1.9L260.5,185.2z M259,188.5v-1.7h1.7v1.7H259z"/>
	</g>
</g>
</svg>
